<svg xmlns="http://www.w3.org/2000/svg" xmlns:xlink="http://www.w3.org/1999/xlink" width="100" zoomAndPan="magnify" viewBox="0 0 75 74.999997" height="100" preserveAspectRatio="xMidYMid meet" version="1.0"><defs><clipPath id="af9c17541a"><path d="M 23.292969 43.613281 L 30.648438 43.613281 L 30.648438 47.363281 L 23.292969 47.363281 Z M 23.292969 43.613281 " clip-rule="nonzero"/></clipPath><clipPath id="6ad58b4208"><path d="M 25.167969 43.613281 L 28.773438 43.613281 C 29.269531 43.613281 29.746094 43.8125 30.097656 44.164062 C 30.449219 44.515625 30.648438 44.992188 30.648438 45.488281 C 30.648438 45.988281 30.449219 46.464844 30.097656 46.816406 C 29.746094 47.167969 29.269531 47.363281 28.773438 47.363281 L 25.167969 47.363281 C 24.671875 47.363281 24.195312 47.167969 23.84375 46.816406 C 23.492188 46.464844 23.292969 45.988281 23.292969 45.488281 C 23.292969 44.992188 23.492188 44.515625 23.84375 44.164062 C 24.195312 43.8125 24.671875 43.613281 25.167969 43.613281 Z M 25.167969 43.613281 " clip-rule="nonzero"/></clipPath><clipPath id="5d7192e495"><path d="M 29 29 L 59 29 L 59 65 L 29 65 Z M 29 29 " clip-rule="nonzero"/></clipPath><clipPath id="3fa7cd69f1"><path d="M -6.582031 24.066406 L 41.523438 -5.085938 L 77.285156 53.921875 L 29.179688 83.078125 Z M -6.582031 24.066406 " clip-rule="nonzero"/></clipPath><clipPath id="b64fde8149"><path d="M -6.582031 24.066406 L 41.523438 -5.085938 L 77.285156 53.921875 L 29.179688 83.078125 Z M -6.582031 24.066406 " clip-rule="nonzero"/></clipPath><clipPath id="c485b41a74"><path d="M 11 9 L 58 9 L 58 56 L 11 56 Z M 11 9 " clip-rule="nonzero"/></clipPath><clipPath id="a3c3e98aa4"><path d="M -6.582031 24.066406 L 41.523438 -5.085938 L 77.285156 53.921875 L 29.179688 83.078125 Z M -6.582031 24.066406 " clip-rule="nonzero"/></clipPath><clipPath id="4546cba44f"><path d="M -6.582031 24.066406 L 41.523438 -5.085938 L 77.285156 53.921875 L 29.179688 83.078125 Z M -6.582031 24.066406 " clip-rule="nonzero"/></clipPath><clipPath id="e00dd4a211"><path d="M 14 12 L 52 12 L 52 52 L 14 52 Z M 14 12 " clip-rule="nonzero"/></clipPath><clipPath id="ab303f9ffe"><path d="M -6.582031 24.066406 L 41.523438 -5.085938 L 77.285156 53.921875 L 29.179688 83.078125 Z M -6.582031 24.066406 " clip-rule="nonzero"/></clipPath><clipPath id="990c89bedd"><path d="M -6.582031 24.066406 L 41.523438 -5.085938 L 77.285156 53.921875 L 29.179688 83.078125 Z M -6.582031 24.066406 " clip-rule="nonzero"/></clipPath></defs><g clip-path="url(#af9c17541a)"><g clip-path="url(#6ad58b4208)"><path fill="#000000" d="M 23.292969 43.613281 L 30.648438 43.613281 L 30.648438 47.363281 L 23.292969 47.363281 Z M 23.292969 43.613281 " fill-opacity="1" fill-rule="nonzero"/></g></g><g clip-path="url(#5d7192e495)"><g clip-path="url(#3fa7cd69f1)"><g clip-path="url(#b64fde8149)"><path fill="#000000" d="M 58.648438 63.800781 C 55.691406 61.527344 49.140625 57.90625 41.210938 47.875 C 41.582031 47.308594 41.855469 46.492188 42.179688 46.085938 C 42.988281 44.527344 44.03125 43.375 44.292969 40.871094 C 44.417969 39.660156 43.332031 39.855469 43.179688 40.371094 C 43.027344 40.871094 42.960938 42.003906 42.597656 42.871094 C 41.929688 44.226562 41.121094 45.507812 40.410156 46.84375 C 36.449219 41.675781 31.800781 31.519531 31.621094 30.175781 C 31.507812 29.730469 30.886719 29.503906 30.546875 29.84375 C 29.820312 30.53125 35.445312 42.300781 39.234375 47.273438 C 37.066406 47.230469 34.382812 47.078125 31.039062 45.859375 C 30.253906 44.992188 29.257812 46.40625 30.492188 46.9375 C 32.109375 47.632812 36.273438 48.597656 40.152344 48.4375 C 42.664062 51.515625 44.554688 53.777344 47.128906 56.210938 C 43.273438 54.457031 41.761719 53.5625 39.800781 53.824219 C 38.457031 53.855469 36.785156 55.273438 37.683594 56.65625 C 39.9375 59.707031 46.453125 59.554688 49.90625 59.113281 C 50.414062 59 49.988281 58.734375 50.691406 59.285156 C 54.539062 62.894531 56.671875 63.660156 57.917969 64.726562 C 58.527344 65.210938 59.242188 64.257812 58.648438 63.800781 Z M 58.648438 63.800781 " fill-opacity="1" fill-rule="nonzero"/></g></g></g><g clip-path="url(#c485b41a74)"><g clip-path="url(#a3c3e98aa4)"><g clip-path="url(#4546cba44f)"><path fill="#dc2028" d="M 29.179688 39.910156 C 35.679688 49.449219 24.222656 59.925781 15.472656 53.925781 C 8.703125 49.285156 10.152344 38.699219 17.539062 35.621094 C 21.953125 33.78125 26.664062 36.21875 29.179688 39.910156 Z M 16.113281 22.148438 C 17.035156 29.074219 25.0625 33.078125 29.773438 31.925781 C 36.207031 30.351562 42.796875 17.921875 33.363281 11.867188 C 23.746094 5.699219 15.234375 15.535156 16.113281 22.148438 Z M 41.097656 24.125 C 35.957031 29.1875 36.984375 37.730469 43.734375 40.585938 C 48.789062 42.726562 54.996094 40.097656 56.996094 35.054688 C 60.410156 26.433594 49.386719 15.957031 41.097656 24.125 Z M 41.097656 24.125 " fill-opacity="1" fill-rule="nonzero"/></g></g></g><g clip-path="url(#e00dd4a211)"><g clip-path="url(#ab303f9ffe)"><g clip-path="url(#990c89bedd)"><path fill="#ffffff" d="M 28.890625 17.015625 C 28.492188 17.054688 28.097656 17.074219 27.699219 17.074219 C 27.785156 20.132812 25.320312 20.582031 25.578125 16.933594 C 24.953125 16.859375 24.511719 16.835938 24.117188 16.601562 C 23.234375 16.113281 23.738281 14.714844 25.636719 14.695312 C 25.785156 11.917969 27.363281 12.507812 27.511719 13.5 C 27.625 13.933594 27.617188 14.375 27.601562 14.820312 C 28.117188 14.851562 28.636719 14.910156 29.109375 15.121094 C 29.761719 15.445312 29.65625 16.851562 28.890625 17.015625 Z M 50.003906 23.757812 C 49.480469 22.8125 48.347656 22.738281 47.949219 25.410156 C 45.363281 24.277344 43.933594 26.65625 46.621094 27.394531 C 48.226562 27.941406 47.71875 27.3125 47.523438 29.671875 C 47.484375 29.929688 47.355469 30.210938 47.429688 30.46875 C 47.5625 30.753906 47.550781 31.113281 47.875 31.273438 C 48.59375 31.625 48.914062 30.691406 49.199219 30.210938 C 49.558594 29.605469 49.621094 29.355469 49.738281 28.261719 C 50.058594 28.324219 50.378906 28.375 50.707031 28.417969 C 51.472656 28.609375 51.925781 28.070312 51.84375 27.335938 C 51.707031 26.945312 51.167969 26.679688 50.074219 26.269531 C 50.214844 25.425781 50.332031 24.503906 50.003906 23.757812 Z M 20.511719 46.632812 C 19.703125 45.960938 18.609375 46.769531 17.753906 47.105469 C 14.917969 43.703125 14.5625 45.980469 15.210938 46.8125 C 15.398438 47.078125 15.628906 47.425781 15.890625 47.8125 C 13.550781 48.859375 14.46875 50.902344 17.355469 49.765625 C 18.246094 50.789062 19.738281 51.890625 20.035156 50.617188 C 20.152344 49.933594 19.609375 49.382812 19.175781 48.859375 C 20.15625 48.367188 20.941406 48.039062 20.777344 47.445312 C 20.894531 47.148438 20.75 46.824219 20.511719 46.632812 Z M 20.511719 46.632812 " fill-opacity="1" fill-rule="nonzero"/></g></g></g></svg>