<svg xmlns="http://www.w3.org/2000/svg" xmlns:xlink="http://www.w3.org/1999/xlink" width="100" zoomAndPan="magnify" viewBox="0 0 75 74.999997" height="100" preserveAspectRatio="xMidYMid meet" version="1.0"><defs><clipPath id="8af2fc7a0c"><path d="M 1 7 L 75 7 L 75 71 L 1 71 Z M 1 7 " clip-rule="nonzero"/></clipPath><clipPath id="730c7fc41b"><path d="M -7.394531 12.941406 L 66.3125 -0.921875 L 77.957031 60.996094 L 4.25 74.855469 Z M -7.394531 12.941406 " clip-rule="nonzero"/></clipPath><clipPath id="979a9679ac"><path d="M -7.394531 12.941406 L 66.3125 -0.921875 L 77.957031 60.996094 L 4.25 74.855469 Z M -7.394531 12.941406 " clip-rule="nonzero"/></clipPath><clipPath id="35336b4edd"><path d="M 1 5 L 73 5 L 73 65 L 1 65 Z M 1 5 " clip-rule="nonzero"/></clipPath><clipPath id="d28caf7b88"><path d="M -7.394531 12.941406 L 66.3125 -0.921875 L 77.957031 60.996094 L 4.25 74.855469 Z M -7.394531 12.941406 " clip-rule="nonzero"/></clipPath><clipPath id="332d1a3dcc"><path d="M -7.394531 12.941406 L 66.3125 -0.921875 L 77.957031 60.996094 L 4.25 74.855469 Z M -7.394531 12.941406 " clip-rule="nonzero"/></clipPath><clipPath id="32c37e4f98"><path d="M 32 35 L 47 35 L 47 56 L 32 56 Z M 32 35 " clip-rule="nonzero"/></clipPath><clipPath id="1500e8a30d"><path d="M -7.394531 12.941406 L 66.3125 -0.921875 L 77.957031 60.996094 L 4.25 74.855469 Z M -7.394531 12.941406 " clip-rule="nonzero"/></clipPath><clipPath id="c38053c92e"><path d="M -7.394531 12.941406 L 66.3125 -0.921875 L 77.957031 60.996094 L 4.25 74.855469 Z M -7.394531 12.941406 " clip-rule="nonzero"/></clipPath><clipPath id="2fd7ad2912"><path d="M 32 36 L 43 36 L 43 53 L 32 53 Z M 32 36 " clip-rule="nonzero"/></clipPath><clipPath id="bd92f9ac4a"><path d="M -7.394531 12.941406 L 66.3125 -0.921875 L 77.957031 60.996094 L 4.25 74.855469 Z M -7.394531 12.941406 " clip-rule="nonzero"/></clipPath><clipPath id="23fdc46d51"><path d="M -7.394531 12.941406 L 66.3125 -0.921875 L 77.957031 60.996094 L 4.25 74.855469 Z M -7.394531 12.941406 " clip-rule="nonzero"/></clipPath><clipPath id="c51fe5f40a"><path d="M 1 7 L 72 7 L 72 69 L 1 69 Z M 1 7 " clip-rule="nonzero"/></clipPath><clipPath id="3a4fc19d33"><path d="M -7.394531 12.941406 L 66.3125 -0.921875 L 77.957031 60.996094 L 4.25 74.855469 Z M -7.394531 12.941406 " clip-rule="nonzero"/></clipPath><clipPath id="4c2b219635"><path d="M -7.394531 12.941406 L 66.3125 -0.921875 L 77.957031 60.996094 L 4.25 74.855469 Z M -7.394531 12.941406 " clip-rule="nonzero"/></clipPath><clipPath id="6c3eeb0995"><path d="M 23.292969 43.613281 L 30.648438 43.613281 L 30.648438 47.363281 L 23.292969 47.363281 Z M 23.292969 43.613281 " clip-rule="nonzero"/></clipPath><clipPath id="bb78b47466"><path d="M 25.167969 43.613281 L 28.773438 43.613281 C 29.269531 43.613281 29.746094 43.8125 30.097656 44.164062 C 30.449219 44.515625 30.648438 44.992188 30.648438 45.488281 C 30.648438 45.988281 30.449219 46.464844 30.097656 46.816406 C 29.746094 47.167969 29.269531 47.363281 28.773438 47.363281 L 25.167969 47.363281 C 24.671875 47.363281 24.195312 47.167969 23.84375 46.816406 C 23.492188 46.464844 23.292969 45.988281 23.292969 45.488281 C 23.292969 44.992188 23.492188 44.515625 23.84375 44.164062 C 24.195312 43.8125 24.671875 43.613281 25.167969 43.613281 Z M 25.167969 43.613281 " clip-rule="nonzero"/></clipPath></defs><g clip-path="url(#8af2fc7a0c)"><g clip-path="url(#730c7fc41b)"><g clip-path="url(#979a9679ac)"><path fill="#dc2028" d="M 74.300781 43.148438 C 74.097656 42.804688 72.5625 40.808594 71.925781 40.515625 C 72.136719 39.960938 72.253906 39.3125 72.261719 38.511719 C 72.046875 37.285156 71.246094 36.238281 70.667969 35.15625 C 67.902344 29.976562 62.371094 26.335938 58.734375 21.800781 C 55.152344 17.328125 51.46875 12.542969 46.902344 9.015625 C 45.476562 7.910156 43.089844 7.820312 42.796875 7.988281 C 42.789062 7.992188 42.777344 8 42.769531 8.007812 C 42.894531 8.148438 42.96875 8.234375 42.96875 8.234375 C 43.234375 8.941406 38.976562 13.226562 36.382812 14.074219 C 35.152344 14.566406 33.890625 15.015625 32.574219 15.199219 C 32.144531 15.265625 28.40625 15.523438 28.390625 15.523438 C 26.695312 15.421875 25.785156 15.277344 23.675781 14.347656 C 22.976562 13.984375 22.238281 13.640625 21.660156 13.097656 C 21.511719 12.867188 20.609375 12.066406 20.398438 11.59375 C 19.460938 11.246094 17.9375 12.472656 17.347656 12.976562 C 15.601562 14.472656 14.46875 16.28125 13.554688 18.363281 C 12.242188 21.351562 11.433594 24.527344 10.265625 27.574219 C 9.039062 30.777344 7.679688 33.9375 6.203125 37.035156 C 4.820312 39.929688 2.917969 42.8125 2.207031 45.972656 C 1.84375 47.585938 1.855469 49.328125 2.554688 50.824219 C 2.753906 51.253906 3.003906 51.664062 3.296875 52.054688 C 3.273438 52.125 3.25 52.1875 3.222656 52.242188 C 1.898438 55.519531 0.90625 57.050781 3.472656 58.28125 C 4.164062 58.640625 4.933594 58.820312 5.625 59.183594 C 6.148438 59.453125 6.695312 59.65625 7.265625 59.796875 C 9.019531 60.191406 9.773438 60.730469 10.578125 58.902344 C 12.046875 55.691406 11.636719 56.230469 12.003906 55.414062 C 12.71875 55.355469 13.386719 55.15625 13.941406 54.71875 C 15.574219 53.433594 16.363281 49.652344 16.683594 47.75 C 17.003906 45.851562 17.832031 44.011719 18.449219 42.191406 C 19.054688 40.410156 19.402344 38.097656 20.355469 36.492188 C 21.183594 37.394531 20.78125 38.828125 20.640625 39.90625 C 20.25 42.929688 20.140625 45.933594 20.332031 48.976562 C 20.488281 51.441406 20.824219 53.898438 21.339844 56.3125 C 21.605469 57.550781 22.078125 58.789062 22.285156 60.035156 C 22.457031 61.078125 22.625 61.976562 23.199219 62.914062 C 23.640625 63.636719 24.046875 63.933594 24.667969 64.027344 C 24.625 64.078125 24.605469 64.132812 24.609375 64.195312 C 24.851562 65.242188 25.132812 66.277344 25.304688 67.339844 C 25.960938 70.753906 27.269531 70.144531 30.035156 69.855469 C 31.53125 69.710938 32.992188 69.324219 34.453125 68.984375 C 37.066406 68.375 39.773438 68.304688 42.382812 67.773438 C 44.335938 67.371094 46.289062 66.96875 48.246094 66.570312 C 49.058594 66.402344 49.875 66.234375 50.691406 66.066406 C 52.351562 65.726562 54.027344 65.382812 55.589844 64.726562 C 55.875 64.605469 56.160156 64.472656 56.378906 64.257812 C 57.078125 63.574219 56.777344 62.683594 56.671875 61.820312 C 56.542969 60.789062 56.34375 59.71875 56.003906 58.738281 C 55.921875 58.5 55.824219 58.351562 55.707031 58.261719 C 55.652344 58.214844 55.589844 58.1875 55.523438 58.167969 C 55.5625 58.144531 55.605469 58.121094 55.644531 58.097656 C 56.5 57.597656 56.738281 56.179688 56.816406 55.269531 C 56.957031 53.6875 56.765625 51.949219 56.59375 50.363281 C 56.398438 48.554688 56.011719 46.765625 55.445312 45.035156 C 54.351562 41.695312 53.222656 38.820312 51.757812 35.664062 C 51.300781 34.679688 50.773438 33.644531 50.578125 32.566406 C 50.558594 32.460938 50.683594 30.503906 51.042969 30.820312 C 51.671875 31.378906 52.816406 33.117188 52.8125 33.121094 C 58.527344 40.070312 59.976562 47.152344 64.441406 46.371094 C 64.441406 46.398438 64.449219 46.425781 64.460938 46.457031 C 64.5 46.523438 64.550781 46.546875 64.605469 46.550781 C 64.871094 47.113281 65.449219 47.492188 65.839844 47.96875 C 67.78125 50.214844 67.804688 49.859375 72.609375 46.429688 C 73.695312 45.65625 75.164062 44.601562 74.300781 43.148438 Z M 74.300781 43.148438 " fill-opacity="1" fill-rule="nonzero"/></g></g></g><g clip-path="url(#35336b4edd)"><g clip-path="url(#d28caf7b88)"><g clip-path="url(#332d1a3dcc)"><path fill="#000000" d="M 42.96875 8.234375 C 43.234375 8.941406 38.976562 13.226562 36.382812 14.074219 C 35.152344 14.566406 33.890625 15.015625 32.574219 15.199219 C 32.144531 15.265625 28.40625 15.523438 28.390625 15.523438 C 26.695312 15.421875 25.785156 15.277344 23.675781 14.347656 C 22.976562 13.984375 22.238281 13.640625 21.660156 13.097656 C 21.507812 12.859375 20.550781 12.015625 20.382812 11.550781 C 20.101562 10.777344 21.03125 9.921875 21.53125 9.355469 C 22.511719 8.242188 23.050781 7.226562 24.632812 7.980469 C 26.894531 9.058594 29.277344 9.128906 31.710938 8.59375 C 32.996094 8.320312 33.441406 8.382812 36.171875 7.054688 C 37.03125 6.644531 37.902344 6.257812 38.714844 5.757812 C 39.191406 5.421875 39.808594 5.382812 40.351562 5.566406 C 40.703125 5.691406 42.96875 8.230469 42.96875 8.234375 Z M 72.261719 38.511719 C 72.238281 41.378906 70.808594 42.285156 68.625 44.050781 C 60.4375 50.820312 60.003906 41.863281 52.8125 33.121094 C 52.816406 33.117188 51.671875 31.375 51.042969 30.820312 C 50.683594 30.503906 50.558594 32.460938 50.578125 32.566406 C 50.773438 33.644531 51.300781 34.679688 51.757812 35.664062 C 53.222656 38.820312 54.351562 41.699219 55.445312 45.039062 C 56.019531 46.796875 56.40625 48.609375 56.601562 50.445312 C 56.769531 52.007812 56.953125 53.714844 56.816406 55.269531 C 56.738281 56.175781 56.5 57.597656 55.644531 58.097656 C 55.039062 58.453125 54.164062 58.671875 53.480469 58.804688 C 50.875 59.308594 48.261719 59.757812 45.640625 60.183594 C 43.105469 60.597656 40.660156 61.402344 38.125 61.789062 C 36.625 62.019531 35.203125 62.394531 33.71875 62.648438 C 32.140625 62.921875 30.5 63.097656 28.941406 63.46875 C 27.816406 63.738281 26.675781 64.011719 25.511719 64.054688 C 24.359375 64.097656 23.816406 63.921875 23.199219 62.914062 C 22.625 61.976562 22.457031 61.078125 22.285156 60.035156 C 22.078125 58.789062 21.605469 57.550781 21.339844 56.3125 C 20.824219 53.894531 20.488281 51.441406 20.332031 48.976562 C 20.140625 45.933594 20.25 42.929688 20.640625 39.90625 C 20.78125 38.828125 21.183594 37.394531 20.355469 36.492188 C 19.402344 38.097656 19.054688 40.410156 18.449219 42.191406 C 17.835938 44.011719 17.003906 45.851562 16.683594 47.75 C 16.363281 49.652344 15.574219 53.429688 13.941406 54.71875 C 12.21875 56.078125 9.386719 55.140625 7.460938 54.816406 C 5.378906 54.375 3.457031 52.75 2.554688 50.824219 C 1.855469 49.328125 1.84375 47.585938 2.207031 45.972656 C 2.917969 42.8125 4.820312 39.929688 6.203125 37.035156 C 7.4375 34.445312 8.585938 31.816406 9.648438 29.152344 C 13.433594 30.484375 21.230469 31.964844 26.613281 31.746094 C 38.152344 32.144531 43.195312 28.832031 45.980469 27.347656 C 45.984375 27.347656 45.980469 27.34375 45.980469 27.34375 C 45.921875 27.34375 48.867188 25.753906 51.394531 23.925781 C 51.402344 23.921875 55.691406 20.585938 55.988281 20.320312 C 56.324219 19.929688 56.589844 19.621094 56.796875 19.375 C 57.449219 20.1875 58.09375 21 58.734375 21.800781 C 62.371094 26.335938 67.902344 29.976562 70.667969 35.15625 C 71.246094 36.238281 72.046875 37.285156 72.261719 38.511719 Z M 49.5 25.242188 C 49.507812 25.238281 49.511719 25.234375 49.515625 25.230469 C 49.523438 25.226562 49.507812 25.238281 49.5 25.242188 Z M 49.5 25.242188 " fill-opacity="1" fill-rule="nonzero"/></g></g></g><g clip-path="url(#32c37e4f98)"><g clip-path="url(#1500e8a30d)"><g clip-path="url(#c38053c92e)"><path fill="#f7d9b5" d="M 46.515625 51.792969 C 45.703125 50.902344 44.902344 49.972656 44.027344 49.128906 C 43.195312 48.324219 42.390625 47.484375 41.570312 46.660156 C 42.175781 46.5625 42.824219 46.5 43.398438 46.339844 C 44.28125 46.097656 44.253906 45.695312 43.820312 45.257812 C 43.183594 44.621094 42.5625 43.953125 41.878906 43.34375 C 41.230469 42.769531 40.601562 42.164062 39.960938 41.570312 C 39.980469 41.566406 40.003906 41.5625 40.023438 41.558594 C 40.632812 41.445312 41.3125 41.394531 41.902344 41.234375 C 42.691406 41.015625 42.667969 40.671875 42.285156 40.296875 C 41.722656 39.75 41.171875 39.175781 40.566406 38.65625 C 39.417969 37.675781 38.339844 36.601562 37.113281 35.683594 C 36.066406 34.898438 35.832031 35.480469 35.398438 36.324219 C 35.101562 36.894531 34.785156 37.457031 34.464844 38.023438 C 33.953125 38.925781 33.386719 39.824219 32.921875 40.738281 C 32.769531 41.039062 32.65625 41.339844 32.546875 41.644531 C 32.304688 42.335938 32.082031 42.835938 33.308594 42.84375 C 33.820312 42.84375 34.433594 42.730469 35.027344 42.597656 C 34.464844 43.628906 33.84375 44.652344 33.335938 45.699219 C 33.167969 46.042969 33.042969 46.394531 32.925781 46.746094 C 32.660156 47.546875 32.410156 48.125 33.785156 48.140625 C 34.257812 48.148438 34.8125 48.058594 35.363281 47.945312 C 34.675781 49.351562 33.90625 50.746094 33.285156 52.171875 C 33.078125 52.644531 32.933594 53.121094 32.789062 53.601562 C 32.472656 54.691406 32.171875 55.476562 33.90625 55.53125 C 35.132812 55.570312 36.757812 55.074219 37.984375 54.808594 C 39.769531 54.425781 41.5625 54.054688 43.359375 53.71875 C 44.214844 53.5625 45.175781 53.503906 46.007812 53.265625 C 47.117188 52.949219 47.074219 52.398438 46.515625 51.792969 Z M 46.515625 51.792969 " fill-opacity="1" fill-rule="nonzero"/></g></g></g><g clip-path="url(#2fd7ad2912)"><g clip-path="url(#bd92f9ac4a)"><g clip-path="url(#23fdc46d51)"><path fill="#c41825" d="M 33.855469 40.386719 C 32.085938 40.054688 32.335938 37.347656 33.976562 37.023438 C 35.003906 36.773438 36.007812 37.878906 35.882812 38.886719 C 35.753906 39.808594 34.78125 40.558594 33.855469 40.386719 Z M 41.066406 42.332031 C 41.191406 41.328125 40.1875 40.222656 39.160156 40.472656 C 37.519531 40.792969 37.269531 43.503906 39.039062 43.835938 C 39.964844 44.007812 40.9375 43.253906 41.066406 42.332031 Z M 37.632812 48.195312 C 37.757812 47.1875 36.757812 46.085938 35.726562 46.332031 C 34.085938 46.65625 33.835938 49.367188 35.609375 49.695312 C 36.53125 49.871094 37.507812 49.117188 37.632812 48.195312 Z M 42.84375 51.183594 C 42.96875 50.175781 41.96875 49.074219 40.9375 49.320312 C 39.296875 49.644531 39.046875 52.355469 40.820312 52.6875 C 41.742188 52.859375 42.71875 52.105469 42.84375 51.183594 Z M 42.84375 51.183594 " fill-opacity="1" fill-rule="nonzero"/></g></g></g><g clip-path="url(#c51fe5f40a)"><g clip-path="url(#3a4fc19d33)"><g clip-path="url(#4c2b219635)"><path fill="#ffffff" d="M 27.210938 12.957031 C 27.394531 13.265625 27.0625 13.667969 26.726562 13.554688 C 26.234375 13.257812 26.113281 12.566406 25.832031 12.089844 C 25.824219 12.074219 25.816406 12.058594 25.808594 12.042969 C 25.585938 12.171875 25.355469 12.304688 25.113281 12.433594 C 24.71875 12.628906 24.117188 13.15625 23.921875 12.441406 C 23.902344 12 24.214844 12.023438 25.425781 11.308594 C 25.226562 10.941406 25.023438 10.578125 24.839844 10.207031 C 24.441406 9.609375 25.375 9.136719 25.585938 9.832031 C 25.585938 9.835938 25.824219 10.300781 26.121094 10.871094 C 26.371094 10.707031 26.644531 10.519531 26.949219 10.300781 C 27.351562 9.757812 28.136719 10.355469 27.609375 10.832031 C 27.410156 11 27.019531 11.289062 26.507812 11.617188 C 26.847656 12.273438 27.164062 12.878906 27.210938 12.957031 Z M 32.816406 11.667969 C 33.121094 11.140625 33.339844 10.707031 33.4375 10.464844 C 33.6875 9.804688 32.714844 9.628906 32.605469 10.296875 C 32.4375 10.632812 32.277344 10.925781 32.132812 11.183594 C 31.609375 10.8125 31.179688 10.507812 31.179688 10.507812 C 30.671875 9.984375 30.0625 10.832031 30.691406 11.179688 C 31.023438 11.429688 31.371094 11.65625 31.714844 11.890625 C 30.964844 13.082031 30.675781 13.203125 30.898438 13.589844 C 31.398438 14.136719 31.691406 13.386719 31.953125 13.035156 C 32.109375 12.808594 32.253906 12.585938 32.390625 12.371094 C 32.40625 12.378906 32.421875 12.390625 32.433594 12.402344 C 32.902344 12.695312 33.328125 13.253906 33.902344 13.289062 C 34.253906 13.238281 34.363281 12.726562 34.058594 12.535156 C 33.976562 12.488281 33.421875 12.097656 32.816406 11.667969 Z M 38.464844 8.9375 C 38.582031 8.34375 38.648438 7.859375 38.664062 7.597656 C 38.6875 6.890625 37.710938 7.039062 37.824219 7.710938 C 37.769531 8.078125 37.714844 8.40625 37.660156 8.699219 C 37.042969 8.515625 36.542969 8.367188 36.539062 8.367188 C 35.894531 8.039062 35.589844 9.035156 36.292969 9.160156 C 36.6875 9.289062 37.089844 9.394531 37.492188 9.503906 C 37.171875 10.875 36.933594 11.082031 37.269531 11.375 C 37.921875 11.730469 37.957031 10.929688 38.085938 10.507812 C 38.160156 10.246094 38.230469 9.988281 38.289062 9.738281 C 38.304688 9.742188 38.324219 9.75 38.339844 9.753906 C 38.878906 9.878906 39.460938 10.273438 40.015625 10.125 C 40.332031 9.960938 40.269531 9.4375 39.917969 9.359375 C 39.828125 9.339844 39.175781 9.148438 38.464844 8.9375 Z M 68.792969 32.3125 C 68.808594 32.453125 68.8125 32.585938 68.789062 32.703125 C 68.617188 33.917969 67.808594 35.136719 66.542969 35.382812 C 59.296875 37.164062 64.480469 40.847656 58.417969 41.558594 C 58.613281 41.878906 58.804688 42.191406 58.996094 42.488281 C 62.289062 42.050781 62.476562 40.390625 63.09375 38.796875 C 63.429688 37.730469 64.472656 37.210938 65.417969 36.765625 C 66.742188 36.183594 68.652344 36.382812 69.578125 33.644531 C 69.59375 33.59375 69.613281 33.527344 69.632812 33.457031 C 69.367188 33.066406 69.085938 32.6875 68.792969 32.3125 Z M 71.75 37.058594 C 70.335938 39.132812 68.15625 39.234375 67.277344 39.601562 C 65.535156 40.429688 65.472656 42.4375 64.621094 43.402344 C 63.574219 44.335938 62.15625 44.683594 60.761719 44.882812 C 60.523438 44.625 60.285156 44.335938 60.046875 44.023438 C 60.140625 44.015625 60.226562 44 60.300781 43.980469 C 63.617188 43.445312 64.050781 42.820312 64.457031 41.65625 C 65.78125 38.058594 67.867188 38.761719 69.613281 37.742188 C 70.097656 37.441406 70.859375 36.769531 71.203125 36.082031 C 71.390625 36.402344 71.582031 36.726562 71.75 37.058594 Z M 16.511719 48.6875 C 16.441406 49.054688 16.355469 49.449219 16.257812 49.855469 C 16.089844 49.894531 15.90625 49.929688 15.699219 49.957031 C 13.816406 50.320312 12.527344 48.699219 11.203125 47.65625 C 10.523438 47.199219 9.664062 47.058594 8.859375 47.023438 C 8.109375 47.0625 7.390625 47.332031 6.636719 47.328125 C 4.75 47.207031 3.238281 46.167969 2.445312 45.0625 C 2.570312 44.636719 2.71875 44.21875 2.878906 43.804688 C 3.226562 44.410156 3.628906 45.023438 4.203125 45.441406 C 6.894531 47.394531 7.855469 45.335938 10.789062 46.367188 C 12.847656 46.984375 13.859375 50.035156 16.511719 48.6875 Z M 15.585938 52.085938 C 15.4375 52.476562 15.273438 52.851562 15.097656 53.199219 C 14.976562 53.222656 14.847656 53.242188 14.714844 53.257812 C 12.914062 53.800781 11.242188 52.625 10.101562 51.332031 C 8.164062 49.726562 7.175781 51.082031 5.644531 50.917969 C 3.410156 50.695312 2.957031 50.320312 2.039062 49.042969 C 1.960938 48.46875 1.953125 47.878906 2 47.296875 C 2.59375 48.058594 3.015625 49.011719 3.855469 49.535156 C 4.832031 49.933594 5.964844 50.085938 6.976562 49.75 C 8.226562 49.292969 9.605469 49.6875 10.625 50.484375 C 11.226562 51.070312 11.796875 51.699219 12.558594 52.089844 C 13.453125 52.621094 14.269531 52.324219 14.84375 52.25 C 15.097656 52.214844 15.347656 52.183594 15.585938 52.085938 Z M 33.375 67.519531 C 33.703125 67.785156 33.496094 68.371094 33.078125 68.378906 C 32.414062 68.246094 32 67.527344 31.496094 67.113281 C 31.484375 67.101562 31.46875 67.085938 31.453125 67.070312 C 31.257812 67.304688 31.054688 67.542969 30.835938 67.78125 C 30.480469 68.15625 30.023438 68.984375 29.519531 68.269531 C 29.320312 67.785156 29.675781 67.691406 30.730469 66.40625 C 30.363281 66.082031 29.992188 65.761719 29.644531 65.417969 C 28.960938 64.917969 29.804688 64.023438 30.316406 64.707031 C 30.320312 64.710938 30.773438 65.128906 31.328125 65.644531 C 31.539062 65.363281 31.769531 65.042969 32.019531 64.679688 C 32.246094 63.914062 33.355469 64.265625 32.964844 65 C 32.8125 65.269531 32.492188 65.746094 32.054688 66.316406 C 32.699219 66.90625 33.289062 67.453125 33.375 67.519531 Z M 17.050781 27.945312 C 17.328125 28.265625 17.015625 28.800781 16.601562 28.730469 C 15.972656 28.480469 15.703125 27.699219 15.28125 27.199219 C 15.269531 27.179688 15.257812 27.164062 15.246094 27.148438 C 15.011719 27.339844 14.765625 27.535156 14.511719 27.730469 C 14.089844 28.035156 13.488281 28.765625 13.125 27.96875 C 13.019531 27.457031 13.386719 27.429688 14.660156 26.363281 C 14.359375 25.976562 14.054688 25.59375 13.773438 25.191406 C 13.195312 24.574219 14.1875 23.847656 14.566406 24.613281 C 14.566406 24.617188 14.9375 25.113281 15.386719 25.722656 C 15.648438 25.484375 15.929688 25.214844 16.242188 24.902344 C 16.609375 24.191406 17.636719 24.742188 17.113281 25.394531 C 16.914062 25.628906 16.511719 26.039062 15.980469 26.515625 C 16.5 27.21875 16.980469 27.859375 17.050781 27.945312 Z M 24.097656 29.414062 C 24.398438 29.714844 24.125 30.273438 23.707031 30.230469 C 23.0625 30.023438 22.734375 29.265625 22.28125 28.792969 C 22.269531 28.777344 22.253906 28.761719 22.242188 28.746094 C 22.023438 28.957031 21.789062 29.167969 21.546875 29.382812 C 21.152344 29.710938 20.601562 30.484375 20.183594 29.714844 C 20.039062 29.210938 20.40625 29.15625 21.601562 28.003906 C 21.273438 27.640625 20.941406 27.28125 20.632812 26.898438 C 20.011719 26.324219 20.953125 25.527344 21.382812 26.269531 C 21.386719 26.269531 21.789062 26.738281 22.28125 27.316406 C 22.523438 27.0625 22.789062 26.769531 23.078125 26.4375 C 23.394531 25.703125 24.457031 26.179688 23.980469 26.863281 C 23.800781 27.113281 23.425781 27.550781 22.929688 28.066406 C 23.496094 28.726562 24.023438 29.335938 24.097656 29.414062 Z M 31.914062 28.859375 C 32.230469 29.144531 31.988281 29.714844 31.570312 29.699219 C 30.914062 29.53125 30.542969 28.792969 30.0625 28.347656 C 30.050781 28.335938 30.035156 28.320312 30.019531 28.304688 C 29.816406 28.523438 29.59375 28.75 29.367188 28.976562 C 28.988281 29.332031 28.484375 30.136719 28.023438 29.390625 C 27.851562 28.898438 28.210938 28.820312 29.335938 27.601562 C 28.988281 27.253906 28.636719 26.914062 28.308594 26.554688 C 27.652344 26.015625 28.546875 25.167969 29.019531 25.878906 C 29.023438 25.882812 29.449219 26.328125 29.976562 26.871094 C 30.203125 26.605469 30.449219 26.296875 30.71875 25.949219 C 30.992188 25.195312 32.078125 25.609375 31.648438 26.324219 C 31.480469 26.582031 31.132812 27.039062 30.664062 27.585938 C 31.273438 28.210938 31.832031 28.789062 31.914062 28.859375 Z M 40.15625 27.046875 C 40.515625 27.269531 40.386719 27.875 39.972656 27.9375 C 39.296875 27.894531 38.792969 27.234375 38.238281 26.890625 C 38.222656 26.878906 38.207031 26.867188 38.191406 26.855469 C 38.027344 27.109375 37.855469 27.375 37.671875 27.640625 C 37.367188 28.058594 37.023438 28.941406 36.429688 28.296875 C 36.167969 27.84375 36.511719 27.699219 37.386719 26.292969 C 36.980469 26.015625 36.570312 25.75 36.179688 25.453125 C 35.4375 25.046875 36.15625 24.046875 36.753906 24.660156 C 36.757812 24.660156 37.261719 25.019531 37.878906 25.457031 C 38.050781 25.152344 38.238281 24.804688 38.4375 24.410156 C 38.566406 23.621094 39.710938 23.824219 39.417969 24.605469 C 39.300781 24.890625 39.046875 25.40625 38.691406 26.027344 C 39.402344 26.53125 40.0625 26.992188 40.15625 27.046875 Z M 46.949219 23.800781 C 47.351562 23.933594 47.363281 24.554688 46.972656 24.710938 C 46.304688 24.820312 45.667969 24.296875 45.046875 24.085938 C 45.03125 24.078125 45.011719 24.070312 44.992188 24.0625 C 44.894531 24.347656 44.785156 24.644531 44.667969 24.945312 C 44.464844 25.421875 44.332031 26.359375 43.609375 25.867188 C 43.25 25.484375 43.546875 25.269531 44.082031 23.695312 C 43.625 23.523438 43.164062 23.355469 42.714844 23.15625 C 41.898438 22.929688 42.371094 21.792969 43.09375 22.253906 C 43.09375 22.253906 43.667969 22.488281 44.371094 22.769531 C 44.46875 22.433594 44.570312 22.054688 44.675781 21.625 C 44.617188 20.828125 45.78125 20.765625 45.675781 21.589844 C 45.625 21.898438 45.496094 22.457031 45.289062 23.140625 C 46.097656 23.46875 46.84375 23.769531 46.949219 23.800781 Z M 53.460938 19.195312 C 53.875 19.285156 53.953125 19.898438 53.582031 20.09375 C 52.929688 20.277344 52.238281 19.820312 51.601562 19.675781 C 51.582031 19.671875 51.5625 19.664062 51.542969 19.660156 C 51.476562 19.953125 51.398438 20.257812 51.3125 20.570312 C 51.160156 21.066406 51.128906 22.011719 50.355469 21.601562 C 49.960938 21.257812 50.234375 21.011719 50.601562 19.390625 C 50.125 19.265625 49.652344 19.148438 49.183594 19 C 48.347656 18.859375 48.699219 17.675781 49.464844 18.058594 C 49.46875 18.058594 50.0625 18.230469 50.789062 18.441406 C 50.851562 18.09375 50.914062 17.707031 50.972656 17.269531 C 50.832031 16.480469 51.980469 16.296875 51.964844 17.128906 C 51.945312 17.4375 51.875 18.007812 51.742188 18.714844 C 52.582031 18.953125 53.355469 19.171875 53.460938 19.195312 Z M 39.832031 63.683594 C 39.484375 64.15625 39.175781 64.65625 38.855469 65.148438 C 39.199219 65.480469 39.171875 65.46875 39.855469 66.011719 C 40.1875 66.28125 39.980469 66.863281 39.558594 66.871094 C 39.109375 66.746094 38.691406 66.382812 38.289062 65.984375 C 38.046875 66.324219 37.789062 66.648438 37.496094 66.953125 C 37.390625 67.238281 37.136719 67.5 36.808594 67.375 C 35.980469 66.992188 36.789062 66.335938 37.59375 65.28125 C 37.421875 65.113281 37.25 64.960938 37.078125 64.839844 C 36.804688 64.574219 36.410156 64.371094 36.289062 63.988281 C 36.152344 63.449219 36.9375 63.121094 37.210938 63.65625 C 37.597656 63.996094 37.898438 64.265625 38.132812 64.480469 C 38.496094 63.960938 38.742188 63.207031 39.332031 62.921875 C 39.742188 62.824219 40.089844 63.34375 39.832031 63.683594 Z M 45.71875 63.609375 C 47.699219 65.375 46.355469 65.816406 45.96875 65.367188 C 45.695312 64.984375 45.398438 64.667969 45.109375 64.402344 C 44.867188 64.707031 44.589844 65.054688 44.269531 65.449219 C 44.28125 65.738281 44.019531 65.972656 43.742188 65.953125 C 42.597656 65.585938 43.761719 64.484375 44.359375 63.789062 C 43.515625 63.160156 42.933594 62.867188 43.421875 62.328125 C 43.648438 62.117188 44.054688 62.179688 44.199219 62.453125 C 44.480469 62.640625 44.730469 62.820312 44.960938 62.992188 C 45.371094 62.320312 45.855469 61.328125 46.453125 61.789062 C 46.695312 62.003906 46.761719 62.210938 45.71875 63.609375 Z M 52.949219 63.488281 C 53.367188 63.964844 52.625 64.617188 52.207031 64.132812 C 51.847656 63.824219 51.519531 63.476562 51.1875 63.132812 C 50.882812 63.597656 50.625 63.988281 50.621094 63.992188 C 50.527344 64.234375 50.421875 64.527344 50.105469 64.535156 C 48.902344 64.320312 50.101562 63.046875 50.480469 62.445312 C 50.28125 62.273438 50.074219 62.113281 49.851562 61.96875 C 49.417969 61.6875 49.710938 60.972656 50.210938 61.074219 C 50.507812 61.214844 50.773438 61.398438 51.023438 61.605469 C 51.296875 61.136719 51.582031 60.65625 52.046875 60.519531 C 52.746094 60.566406 52.648438 61.253906 52.203125 61.601562 C 52.199219 61.605469 52 61.902344 51.746094 62.289062 C 52.140625 62.703125 52.523438 63.132812 52.949219 63.488281 Z M 50.566406 12.304688 C 50.324219 12.550781 50.074219 12.796875 49.828125 13.039062 C 48.257812 14.535156 49.25 14.132812 44.925781 17.574219 C 43.816406 18.449219 40.019531 20.53125 39.398438 20.78125 C 36.789062 21.800781 34.019531 22.308594 31.253906 22.695312 C 25.945312 23.417969 25.347656 22.90625 23.136719 22.558594 C 21.8125 22.351562 20.472656 22.1875 19.230469 21.652344 C 17.96875 21.195312 16.691406 20.769531 15.542969 20.0625 C 15.113281 19.832031 14.242188 19.328125 13.410156 18.785156 C 13.460938 18.660156 13.511719 18.539062 13.566406 18.417969 C 13.644531 18.238281 13.726562 18.058594 13.808594 17.882812 C 15.871094 19.296875 18.167969 20.324219 20.554688 21.078125 C 21.078125 21.234375 25.660156 22.066406 26.652344 22.085938 C 30.332031 21.972656 34.035156 21.441406 37.5625 20.378906 C 39.015625 19.992188 40.304688 19.246094 41.585938 18.484375 C 42.976562 17.730469 44.253906 17.097656 47.324219 14.285156 C 48.328125 13.222656 49.164062 12.363281 49.867188 11.621094 C 50.101562 11.847656 50.335938 12.074219 50.566406 12.304688 Z M 48.644531 10.457031 C 48.546875 10.566406 48.449219 10.671875 48.347656 10.777344 C 46.882812 12.308594 47.816406 11.90625 43.769531 15.40625 C 42.730469 16.296875 39.160156 18.398438 38.574219 18.648438 C 36.113281 19.660156 33.488281 20.140625 30.867188 20.492188 C 25.835938 21.152344 25.261719 20.609375 23.152344 20.210938 C 21.890625 19.972656 20.613281 19.777344 19.425781 19.199219 C 18.21875 18.703125 16.996094 18.238281 15.890625 17.480469 C 15.585938 17.296875 15.042969 16.953125 14.457031 16.546875 C 14.613281 16.269531 14.78125 15.996094 14.953125 15.726562 C 16.738281 16.960938 18.671875 17.902344 20.671875 18.628906 C 21.171875 18.796875 25.542969 19.742188 26.484375 19.777344 C 29.980469 19.726562 33.488281 19.238281 36.820312 18.195312 C 38.195312 17.820312 39.410156 17.066406 40.613281 16.296875 C 41.921875 15.535156 43.121094 14.902344 45.988281 12.03125 C 46.722656 11.183594 47.355469 10.464844 47.910156 9.824219 C 48.15625 10.035156 48.402344 10.242188 48.644531 10.457031 Z M 48.644531 10.457031 " fill-opacity="1" fill-rule="nonzero"/></g></g></g><g clip-path="url(#6c3eeb0995)"><g clip-path="url(#bb78b47466)"><path fill="#000000" d="M 23.292969 43.613281 L 30.648438 43.613281 L 30.648438 47.363281 L 23.292969 47.363281 Z M 23.292969 43.613281 " fill-opacity="1" fill-rule="nonzero"/></g></g></svg>